<svg width="28" height="28" viewBox="0 0 28 28" fill="none" xmlns="http://www.w3.org/2000/svg">
<path d="M3.5 3.5H24.5C24.8094 3.5 25.1062 3.62292 25.325 3.84171C25.5438 4.0605 25.6667 4.35725 25.6667 4.66667V23.3333C25.6667 23.6428 25.5438 23.9395 25.325 24.1583C25.1062 24.3771 24.8094 24.5 24.5 24.5H3.5C3.19058 24.5 2.89384 24.3771 2.67504 24.1583C2.45625 23.9395 2.33334 23.6428 2.33334 23.3333V4.66667C2.33334 4.35725 2.45625 4.0605 2.67504 3.84171C2.89384 3.62292 3.19058 3.5 3.5 3.5ZM23.3333 8.44433L14.084 16.7277L4.66667 8.41867V22.1667H23.3333V8.44433ZM5.26284 5.83333L14.0712 13.6057L22.7523 5.83333H5.26284Z" fill="white"/>
</svg>
