<svg width="28" height="28" viewBox="0 0 28 28" fill="none" xmlns="http://www.w3.org/2000/svg">
<path d="M14 24.3839L19.775 18.6089C20.9171 17.4667 21.6948 16.0116 22.0098 14.4274C22.3249 12.8433 22.1631 11.2013 21.5449 9.70904C20.9268 8.21683 19.8801 6.94142 18.5371 6.04409C17.1941 5.14676 15.6152 4.66782 14 4.66782C12.3848 4.66782 10.8059 5.14676 9.46293 6.04409C8.11995 6.94142 7.07321 8.21683 6.45507 9.70904C5.83693 11.2013 5.67515 12.8433 5.9902 14.4274C6.30524 16.0116 7.08296 17.4667 8.22501 18.6089L14 24.3839ZM14 27.6832L6.57534 20.2586C5.1069 18.7901 4.10688 16.9192 3.70175 14.8824C3.29662 12.8456 3.50456 10.7344 4.29928 8.81578C5.09401 6.89716 6.43982 5.25729 8.16653 4.10354C9.89324 2.9498 11.9233 2.33398 14 2.33398C16.0767 2.33398 18.1068 2.9498 19.8335 4.10354C21.5602 5.25729 22.906 6.89716 23.7007 8.81578C24.4955 10.7344 24.7034 12.8456 24.2983 14.8824C23.8931 16.9192 22.8931 18.7901 21.4247 20.2586L14 27.6832ZM14 15.1672C14.6188 15.1672 15.2123 14.9214 15.6499 14.4838C16.0875 14.0462 16.3333 13.4527 16.3333 12.8339C16.3333 12.2151 16.0875 11.6216 15.6499 11.184C15.2123 10.7464 14.6188 10.5006 14 10.5006C13.3812 10.5006 12.7877 10.7464 12.3501 11.184C11.9125 11.6216 11.6667 12.2151 11.6667 12.8339C11.6667 13.4527 11.9125 14.0462 12.3501 14.4838C12.7877 14.9214 13.3812 15.1672 14 15.1672ZM14 17.5006C12.7623 17.5006 11.5753 17.0089 10.7002 16.1337C9.825 15.2586 9.33334 14.0716 9.33334 12.8339C9.33334 11.5962 9.825 10.4092 10.7002 9.53406C11.5753 8.65889 12.7623 8.16723 14 8.16723C15.2377 8.16723 16.4247 8.65889 17.2998 9.53406C18.175 10.4092 18.6667 11.5962 18.6667 12.8339C18.6667 14.0716 18.175 15.2586 17.2998 16.1337C16.4247 17.0089 15.2377 17.5006 14 17.5006Z" fill="white"/>
</svg>
